<svg id="visual" viewBox="0 0 900 600" width="900" height="600" xmlns="http://www.w3.org/2000/svg" xmlns:xlink="http://www.w3.org/1999/xlink" version="1.1"><rect x="0" y="0" width="900" height="600" fill="#000000"></rect><path d="M0 361L129 367L257 378L386 418L514 351L643 410L771 356L900 372L900 601L771 601L643 601L514 601L386 601L257 601L129 601L0 601Z" fill="#ffffff"></path><path d="M0 466L129 471L257 478L386 402L514 458L643 410L771 396L900 396L900 601L771 601L643 601L514 601L386 601L257 601L129 601L0 601Z" fill="#bdbcbc"></path><path d="M0 505L129 488L257 501L386 477L514 457L643 467L771 496L900 472L900 601L771 601L643 601L514 601L386 601L257 601L129 601L0 601Z" fill="#7f7e7e"></path><path d="M0 499L129 501L257 495L386 515L514 507L643 496L771 504L900 536L900 601L771 601L643 601L514 601L386 601L257 601L129 601L0 601Z" fill="#464545"></path><path d="M0 527L129 570L257 562L386 567L514 536L643 526L771 548L900 563L900 601L771 601L643 601L514 601L386 601L257 601L129 601L0 601Z" fill="#141212"></path></svg>