<svg id="visual" viewBox="0 0 900 600" width="900" height="600" xmlns="http://www.w3.org/2000/svg" xmlns:xlink="http://www.w3.org/1999/xlink" version="1.1"><rect x="0" y="0" width="900" height="600" fill="#000000"></rect><path d="M0 390L21.5 386.8C43 383.7 86 377.3 128.8 385C171.7 392.7 214.3 414.3 257.2 420.2C300 426 343 416 385.8 401.8C428.7 387.7 471.3 369.3 514.2 376C557 382.7 600 414.3 642.8 419C685.7 423.7 728.3 401.3 771.2 385.8C814 370.3 857 361.7 878.5 357.3L900 353L900 601L878.5 601C857 601 814 601 771.2 601C728.3 601 685.7 601 642.8 601C600 601 557 601 514.2 601C471.3 601 428.7 601 385.8 601C343 601 300 601 257.2 601C214.3 601 171.7 601 128.8 601C86 601 43 601 21.5 601L0 601Z" fill="#ff6c62"></path><path d="M0 403L21.5 407.3C43 411.7 86 420.3 128.8 425C171.7 429.7 214.3 430.3 257.2 429C300 427.7 343 424.3 385.8 419.2C428.7 414 471.3 407 514.2 415.7C557 424.3 600 448.7 642.8 453.2C685.7 457.7 728.3 442.3 771.2 429.3C814 416.3 857 405.7 878.5 400.3L900 395L900 601L878.5 601C857 601 814 601 771.2 601C728.3 601 685.7 601 642.8 601C600 601 557 601 514.2 601C471.3 601 428.7 601 385.8 601C343 601 300 601 257.2 601C214.3 601 171.7 601 128.8 601C86 601 43 601 21.5 601L0 601Z" fill="#ff5a4f"></path><path d="M0 453L21.5 460.3C43 467.7 86 482.3 128.8 487.5C171.7 492.7 214.3 488.3 257.2 485C300 481.7 343 479.3 385.8 474C428.7 468.7 471.3 460.3 514.2 459.8C557 459.3 600 466.7 642.8 470.3C685.7 474 728.3 474 771.2 472.2C814 470.3 857 466.7 878.5 464.8L900 463L900 601L878.5 601C857 601 814 601 771.2 601C728.3 601 685.7 601 642.8 601C600 601 557 601 514.2 601C471.3 601 428.7 601 385.8 601C343 601 300 601 257.2 601C214.3 601 171.7 601 128.8 601C86 601 43 601 21.5 601L0 601Z" fill="#ff473a"></path><path d="M0 535L21.5 526.8C43 518.7 86 502.3 128.8 497.8C171.7 493.3 214.3 500.7 257.2 508.2C300 515.7 343 523.3 385.8 526.3C428.7 529.3 471.3 527.7 514.2 520.7C557 513.7 600 501.3 642.8 495.5C685.7 489.7 728.3 490.3 771.2 491.5C814 492.7 857 494.3 878.5 495.2L900 496L900 601L878.5 601C857 601 814 601 771.2 601C728.3 601 685.7 601 642.8 601C600 601 557 601 514.2 601C471.3 601 428.7 601 385.8 601C343 601 300 601 257.2 601C214.3 601 171.7 601 128.8 601C86 601 43 601 21.5 601L0 601Z" fill="#ff3023"></path><path d="M0 574L21.5 567.7C43 561.3 86 548.7 128.8 545.7C171.7 542.7 214.3 549.3 257.2 548.7C300 548 343 540 385.8 537.5C428.7 535 471.3 538 514.2 542.8C557 547.7 600 554.3 642.8 555.8C685.7 557.3 728.3 553.7 771.2 551.8C814 550 857 550 878.5 550L900 550L900 601L878.5 601C857 601 814 601 771.2 601C728.3 601 685.7 601 642.8 601C600 601 557 601 514.2 601C471.3 601 428.7 601 385.8 601C343 601 300 601 257.2 601C214.3 601 171.7 601 128.8 601C86 601 43 601 21.5 601L0 601Z" fill="#ff0000"></path></svg>